<svg width="18" height="18" viewBox="0 0 18 18" fill="none" xmlns="http://www.w3.org/2000/svg">
<circle cx="9" cy="9" r="9" fill="#FF0062"/>
<path d="M9 3C5.68548 3 3 5.68548 3 9C3 12.3145 5.68548 15 9 15C12.3145 15 15 12.3145 15 9C15 5.68548 12.3145 3 9 3ZM9 13.8387C6.32661 13.8387 4.16129 11.6734 4.16129 9C4.16129 6.32661 6.32661 4.16129 9 4.16129C11.6734 4.16129 13.8387 6.32661 13.8387 9C13.8387 11.6734 11.6734 13.8387 9 13.8387ZM10.4952 11.3129L8.44113 9.82016C8.36613 9.76452 8.32258 9.67742 8.32258 9.58548V5.6129C8.32258 5.45323 8.45323 5.32258 8.6129 5.32258H9.3871C9.54677 5.32258 9.67742 5.45323 9.67742 5.6129V9.04113L11.2935 10.2169C11.4242 10.3113 11.4508 10.4927 11.3565 10.6234L10.9016 11.25C10.8073 11.3782 10.6258 11.4073 10.4952 11.3129Z" fill="white"/>
</svg>
