<svg width="33" height="32" viewBox="0 0 33 32" fill="none" xmlns="http://www.w3.org/2000/svg">
<path d="M28.6838 32C26.5178 32 24.3518 32 22.1858 32C22.1858 28.3394 22.1858 24.6788 22.1858 21.0011C23.1131 21.0011 23.9973 20.9909 24.8808 21.0081C25.121 21.0128 25.2227 20.9283 25.3065 20.7154C25.8675 19.2835 26.4419 17.8562 27.0116 16.4265C27.064 16.295 27.1148 16.1628 27.1814 15.993C25.4935 15.993 23.8526 15.993 22.185 15.993C22.185 15.0642 22.1843 14.1604 22.185 13.2573C22.1858 12.8098 22.1733 12.3614 22.1952 11.9146C22.2218 11.3832 22.4425 11.1485 22.9668 11.0554C23.1499 11.0225 23.3385 11.0069 23.5247 11.0053C24.243 10.9998 24.9614 11.0022 25.6797 11.0022C25.8417 11.0022 26.0045 11.0022 26.1586 11.0022C26.1586 9.31116 26.1586 7.66241 26.1586 6.01758C24.6867 6.01758 23.2399 6.00897 21.7938 6.02384C21.4745 6.02697 21.1498 6.08644 20.8391 6.16391C18.0088 6.87208 16.1965 9.19613 16.1879 12.118C16.1848 13.2949 16.1871 14.4718 16.1871 15.6479C16.1871 15.7582 16.1871 15.8686 16.1871 16.0133C14.8334 16.0133 13.518 16.0133 12.2041 16.0133C12.2041 17.6887 12.2041 19.3304 12.2041 21.0058C13.5352 21.0058 14.8506 21.0058 16.1871 21.0058C16.1871 24.6929 16.1871 28.3465 16.1871 32C12.0218 32 7.85652 32 3.69123 32C3.66619 31.9836 3.64193 31.9554 3.61532 31.9523C1.85937 31.7402 0.173066 30.1455 0.181673 27.7705C0.210626 19.9204 0.191064 12.0695 0.196541 4.21859C0.196541 3.85707 0.219234 3.48616 0.299832 3.1356C0.734907 1.2341 2.31714 0.00477958 4.31332 0.00399707C10.7362 0.00164955 17.159 0.00321457 23.5818 0.00321457C25.1124 0.00321457 26.6422 -0.00539303 28.1728 0.00556209C29.9264 0.0188647 31.4139 1.09168 31.9703 2.72948C32.0564 2.98223 32.1127 3.24437 32.1824 3.50259C32.1824 11.8347 32.1824 20.1677 32.1824 28.4998C32.1628 28.5452 32.1339 28.589 32.1253 28.6368C31.8326 30.1955 30.9311 31.2394 29.4514 31.7879C29.2034 31.8803 28.9404 31.9311 28.6838 32Z" fill="#FF0062"/>
</svg>
