<svg width="18" height="18" viewBox="0 0 18 18" fill="none" xmlns="http://www.w3.org/2000/svg">
<circle cx="9" cy="9" r="9" fill="#FF0062"/>
<path d="M6.74999 9.28571H6.37499C5.54648 9.28571 4.875 9.9904 4.875 10.8601V12.4256C4.875 13.2951 5.54648 14 6.37499 14H6.74999C7.16414 14 7.5 13.6475 7.5 13.2129V10.0729C7.5 9.63806 7.16414 9.28571 6.74999 9.28571ZM11.625 9.28571H11.25C10.8359 9.28571 10.5 9.63806 10.5 10.0729V13.2129C10.5 13.6475 10.8359 14 11.25 14H11.625C12.4535 14 13.125 13.2951 13.125 12.4256V10.8601C13.125 9.99065 12.4535 9.28571 11.625 9.28571ZM8.99999 3C5.64633 3 3.10711 5.92507 3 9.28571V12.0357C3 12.2527 3.16781 12.4286 3.375 12.4286H3.75C3.95719 12.4286 4.125 12.2527 4.125 12.0357V9.28571C4.125 6.47015 6.31241 4.18348 8.99999 4.183C11.6876 4.18348 13.875 6.47015 13.875 9.28571V12.0357C13.875 12.2527 14.0428 12.4286 14.25 12.4286H14.625C14.8322 12.4286 15 12.2527 15 12.0357V9.28571C14.8929 5.92507 12.3537 3 8.99999 3Z" fill="white"/>
</svg>
