<svg width="33" height="32" viewBox="0 0 33 32" fill="none" xmlns="http://www.w3.org/2000/svg">
<path d="M32.0912 7.31082C32.0912 13.1007 32.0912 18.8914 32.0912 24.6813C32.0712 24.7715 32.0428 24.8608 32.0328 24.9518C31.6012 28.8927 28.2923 31.9546 24.333 31.9796C18.8361 32.0147 13.3384 31.9972 7.84149 31.9813C6.54093 31.978 5.30215 31.6407 4.17606 30.9846C1.48229 29.4152 0.124137 27.0379 0.107441 23.9376C0.0782248 18.7019 0.098259 13.4647 0.101598 8.22739C0.101598 7.8434 0.107441 7.4544 0.160031 7.07459C0.604123 3.82069 2.36296 1.59523 5.44155 0.451605C6.06762 0.219542 6.75213 0.146083 7.40992 0C13.1998 0 18.9905 0 24.7804 0C24.8606 0.0191995 24.9399 0.0442422 25.0208 0.0559289C28.2989 0.516716 30.5311 2.28974 31.6572 5.40423C31.8775 6.01277 31.9502 6.6739 32.0912 7.31082ZM28.8966 16.0316C28.8966 13.3553 28.9083 10.6791 28.8933 8.00284C28.8783 5.27484 26.8548 3.21048 24.1443 3.2013C18.771 3.1821 13.3976 3.18043 8.0243 3.20214C5.35724 3.21382 3.31125 5.26316 3.30123 7.93021C3.28036 13.3036 3.2812 18.6769 3.3004 24.0502C3.30958 26.719 5.34723 28.7758 8.01428 28.7875C13.3976 28.8126 18.7818 28.7984 24.166 28.7917C24.9791 28.7908 25.7571 28.6005 26.4666 28.1915C28.0927 27.2549 28.8732 25.8124 28.8908 23.9659C28.915 21.3223 28.8966 18.6769 28.8966 16.0316Z" fill="#FF0062"/>
<path d="M16.0963 23.9942C11.6162 23.995 8.09016 20.4632 8.09767 15.9813C8.10518 11.5129 11.6254 7.99937 16.0947 7.99854C20.5765 7.9977 24.1008 11.5279 24.0933 16.0106C24.0858 20.479 20.5656 23.9925 16.0963 23.9942ZM20.8979 15.9847C20.892 13.2809 18.8035 11.1957 16.0997 11.1932C13.3842 11.1907 11.2873 13.2909 11.2923 16.0072C11.2973 18.7093 13.3884 20.7971 16.0905 20.7996C18.8051 20.8012 20.9037 18.6993 20.8979 15.9847Z" fill="#FF0062"/>
<path d="M25.6927 8.00371C25.6877 8.88772 24.9472 9.61563 24.0707 9.5981C23.1942 9.58057 22.4872 8.861 22.4922 7.99119C22.4972 7.10718 23.2368 6.37926 24.1142 6.39679C24.9923 6.41516 25.6977 7.13305 25.6927 8.00371Z" fill="#FF0062"/>
</svg>
