<svg width="18" height="18" viewBox="0 0 18 18" fill="none" xmlns="http://www.w3.org/2000/svg">
<circle cx="9" cy="9" r="9" fill="#FF0062"/>
<path d="M12.053 5.36872L11.3749 4.89927C11.2842 4.83653 11.1598 4.85914 11.097 4.94979C11.0343 5.04047 11.0569 5.16485 11.1476 5.22764L11.8256 5.69709C11.9154 5.75926 12.0413 5.73627 12.1035 5.6466C12.1662 5.55587 12.1436 5.43149 12.053 5.36872Z" fill="white"/>
<path d="M13.4092 6.30757L12.7311 5.83814C12.6405 5.77536 12.5161 5.79798 12.4533 5.88864C12.3905 5.97932 12.4131 6.1037 12.5038 6.16649L13.1818 6.63591C13.2682 6.69571 13.3966 6.67655 13.4597 6.58542C13.5225 6.49476 13.4999 6.37036 13.4092 6.30757Z" fill="white"/>
<path d="M6.99478 6.09309L6.19189 5.90467C6.08456 5.87951 5.97709 5.94608 5.95186 6.05345C5.92667 6.16083 5.99328 6.26828 6.10064 6.29349L6.90352 6.4819C6.91888 6.48549 6.93419 6.48724 6.94935 6.48724C7.03994 6.48724 7.12196 6.42512 7.14358 6.33312C7.16874 6.22572 7.10213 6.11825 6.99478 6.09309Z" fill="white"/>
<path d="M8.60049 6.46991L7.7976 6.2815C7.69025 6.25633 7.5828 6.3229 7.55757 6.43028C7.53238 6.53765 7.599 6.6451 7.70635 6.67029L8.50924 6.8587C8.52459 6.86229 8.5399 6.86404 8.55507 6.86404C8.64565 6.86404 8.72767 6.80194 8.74929 6.70994C8.77446 6.60255 8.70784 6.4951 8.60049 6.46991Z" fill="white"/>
<path d="M8.91369 7.41601L7.09448 6.98911C6.98715 6.96395 6.87968 7.03052 6.85444 7.13789C6.82926 7.24527 6.89587 7.35272 7.00322 7.3779L8.62804 7.75918L7.31715 13.3457L4.28277 12.6337L5.59364 7.04714L6.21134 7.19207C6.31871 7.21726 6.42614 7.15064 6.45135 7.04329C6.47656 6.93594 6.40992 6.82847 6.30255 6.80328L5.49047 6.61274C5.38336 6.58757 5.2757 6.65414 5.25046 6.76152L3.84834 12.7368C3.82315 12.8442 3.88977 12.9516 3.99712 12.9768L7.42026 13.7801C7.43533 13.7836 7.45067 13.7854 7.4659 13.7854C7.50279 13.7854 7.53924 13.7751 7.5711 13.7554C7.61612 13.7275 7.64819 13.6829 7.66032 13.6313L9.06247 7.65602C9.08763 7.54864 9.02101 7.4412 8.91369 7.41601Z" fill="white"/>
<path d="M7.88931 9.66879C7.8558 9.58902 7.77483 9.53996 7.68852 9.54719L6.94144 9.60983L6.65101 8.9187C6.61752 8.83892 6.53634 8.78984 6.45023 8.79709C6.36405 8.80431 6.29226 8.86624 6.2725 8.95046L6.10124 9.68032L5.35416 9.74299C5.26797 9.75021 5.19619 9.81214 5.17643 9.89634C5.15668 9.98056 5.19339 10.0679 5.26738 10.1127L5.90859 10.5012L5.73733 11.231C5.71757 11.3153 5.75429 11.4026 5.82827 11.4474C5.86025 11.4668 5.89606 11.4763 5.93167 11.4763C5.97851 11.4763 6.02501 11.4599 6.06218 11.4278L6.62972 10.938L7.27096 11.3265C7.3449 11.3713 7.43935 11.3634 7.50487 11.3068C7.57036 11.2503 7.59199 11.1581 7.5585 11.0783L7.26807 10.3872L7.83563 9.89737C7.90122 9.8408 7.92282 9.74854 7.88931 9.66879ZM6.84375 10.4081L6.95233 10.6665L6.7126 10.5212C6.54677 10.4208 6.38022 10.6258 6.26657 10.7239L6.33058 10.4512C6.35034 10.3669 6.31362 10.2796 6.23964 10.2348L5.99996 10.0895L6.2792 10.0662C6.47307 10.0499 6.48673 9.78564 6.52091 9.63997L6.62946 9.89828C6.70502 10.0781 6.95993 10.009 7.10948 9.99649C6.9943 10.096 6.76628 10.2237 6.84375 10.4081Z" fill="white"/>
<path d="M15.1609 5.92785C14.9907 5.81004 14.9331 5.58237 15.0268 5.39826C15.0722 5.30924 15.0447 5.20038 14.9625 5.1435L13.9412 4.43645C13.8591 4.3796 13.7476 4.39218 13.6801 4.46595C13.6019 4.55165 13.4899 4.60081 13.3731 4.60081C13.2886 4.60081 13.2071 4.57528 13.1373 4.5269C12.9671 4.40909 12.9095 4.18142 13.0032 3.99731C13.0486 3.90828 13.0211 3.79943 12.939 3.74255L11.9177 3.0355C11.8355 2.97865 11.724 2.99123 11.6566 3.065C11.5784 3.1507 11.4664 3.19981 11.3496 3.19986C11.2651 3.19986 11.1836 3.17433 11.1138 3.12594C11.0232 3.0632 10.8987 3.08578 10.8359 3.17644L9.68144 4.84397C9.66283 4.83204 9.64205 4.82292 9.61947 4.81761L8.41016 4.53388C8.3129 4.51104 8.21371 4.56366 8.17802 4.65699C8.10504 4.8479 7.89374 4.95915 7.69523 4.91255C7.49378 4.86526 7.35674 4.67455 7.37652 4.46889C7.38609 4.36943 7.32064 4.2782 7.22336 4.25536L6.01408 3.9716C5.91685 3.94876 5.81765 4.00138 5.78194 4.09471C5.70899 4.2854 5.49749 4.39684 5.29915 4.3503C5.19191 4.32511 5.08437 4.39173 5.05914 4.49908L4.75988 5.77438L3.00532 13.2516C2.98014 13.359 3.04675 13.4665 3.1541 13.4916C3.3556 13.5389 3.49261 13.7297 3.47283 13.9353C3.46326 14.0348 3.52871 14.126 3.62597 14.1488L4.83522 14.4326C4.93267 14.4554 5.03168 14.4028 5.06736 14.3095C5.2355 13.8697 5.91381 14.0306 5.86891 14.4976C5.85934 14.597 5.92479 14.6883 6.02207 14.7111L7.23133 14.9949C7.32741 15.0173 7.42819 14.964 7.46347 14.8717C7.52444 14.7122 7.68011 14.6051 7.85085 14.6051C7.93892 14.6051 8.01458 14.6427 8.0971 14.5915C8.14209 14.5636 8.17419 14.519 8.18632 14.4674L8.44891 13.3484L9.01215 13.7384C9.09154 13.7933 9.20606 13.7824 9.27328 13.7089C9.35152 13.6232 9.46346 13.5741 9.58029 13.5741C9.66475 13.5741 9.74629 13.5996 9.81613 13.648C9.90681 13.7107 10.0312 13.6881 10.094 13.5974L15.2113 6.2057C15.2741 6.11504 15.2515 5.99061 15.1609 5.92785ZM8.42791 11.6892L8.12695 12.9718L7.83738 14.2058C7.56766 14.2104 7.31852 14.3509 7.1721 14.5708L6.26378 14.3577C6.22206 14.0266 5.97741 13.744 5.64136 13.6652C5.31312 13.5882 4.96279 13.7281 4.77602 14.0086L3.86772 13.7954C3.83428 13.5302 3.6706 13.296 3.43399 13.1729L5.1032 6.0595L5.29762 6.10511C5.31295 6.1087 5.32826 6.11045 5.3434 6.11045C5.43398 6.11045 5.516 6.04833 5.53763 5.95633C5.56281 5.84896 5.4962 5.74151 5.38882 5.71632L5.19445 5.67071L5.40798 4.76073C5.6777 4.75621 5.92682 4.61571 6.07326 4.39577L6.98158 4.60892C7.0233 4.93999 7.26793 5.22255 7.60397 5.30144C7.93217 5.37843 8.28262 5.23853 8.46931 4.95807L9.37764 5.17119C9.38022 5.17184 9.38599 5.22358 9.38714 5.2293C9.399 5.28811 9.41809 5.34736 9.44311 5.40271C9.51819 5.56903 9.64915 5.70965 9.81135 5.79382L9.59777 6.70401L9.40335 6.6584C9.29622 6.63324 9.18858 6.6998 9.16334 6.80718C9.13816 6.91456 9.20477 7.022 9.31215 7.04719L9.50652 7.0928L9.18896 8.44613L9.15425 8.59405L8.92108 9.58767L8.42791 11.6892ZM14.2514 6.89076L14.0872 6.77707C13.9965 6.71428 13.8721 6.73693 13.8094 6.82756C13.7466 6.91824 13.7692 7.04262 13.8599 7.10541L14.024 7.21908L9.86515 13.2261C9.77463 13.1922 9.67843 13.1746 9.58019 13.1746C9.41163 13.1746 9.24814 13.227 9.11227 13.322L8.54689 12.9305L8.7498 12.0659L9.63291 12.6772C9.72261 12.7393 9.84864 12.7164 9.91074 12.6267L12.4786 8.91771C12.5414 8.82703 12.5188 8.70265 12.4281 8.63986C12.3374 8.57707 12.213 8.5997 12.1503 8.69035L9.69603 12.2352L8.84782 11.648L9.23716 9.98878L9.93851 9.7431L10.3929 10.3394C10.4314 10.39 10.4906 10.4181 10.5517 10.4181C10.5738 10.4181 10.5961 10.4145 10.6177 10.4068C10.6994 10.3783 10.7533 10.3004 10.7513 10.2138L10.7342 9.46437L11.4418 9.21654C11.5234 9.18795 11.5774 9.11004 11.5754 9.02355C11.5734 8.93708 11.516 8.86169 11.4331 8.83683L10.715 8.62144L10.6979 7.87192C10.696 7.78542 10.6385 7.71005 10.5557 7.6852C10.4728 7.66035 10.3834 7.6917 10.3341 7.76282L9.90744 8.37918L9.63403 8.29718L10.1481 6.10655L10.3997 5.74311L12.9623 7.51726L12.6148 8.01919C12.552 8.10987 12.5747 8.23425 12.6653 8.29704C12.756 8.35983 12.8803 8.33718 12.9431 8.24655C12.9431 8.24655 13.4027 7.58273 13.4043 7.5805C13.466 7.49128 13.4426 7.36417 13.3538 7.30265C13.3538 7.30265 10.468 5.30479 10.4629 5.30117C10.3731 5.23903 10.247 5.26207 10.185 5.35167L10.0983 5.47686C10.096 5.47622 10.0936 5.47538 10.0912 5.47481C9.99278 5.45163 9.90538 5.39233 9.84716 5.30971L9.84594 5.30785L10.3052 4.64446L10.4694 4.75813C10.5566 4.8185 10.6844 4.79831 10.7472 4.70761C10.81 4.61695 10.7874 4.49255 10.6967 4.42976L10.5326 4.31609L11.0646 3.54767C11.1551 3.58164 11.2513 3.5992 11.3496 3.5992C11.5181 3.5992 11.6816 3.54676 11.8174 3.45183L12.5844 3.98284C12.502 4.30619 12.6261 4.65872 12.9099 4.85522C13.1874 5.04736 13.5644 5.04595 13.841 4.85278L14.608 5.38379C14.542 5.64284 14.6085 5.92069 14.7835 6.12195L14.2514 6.89076ZM10.3381 9.60863L10.1683 9.3857C10.1165 9.31779 10.0239 9.29002 9.94344 9.31827L9.67898 9.41088C9.76602 9.28514 9.95475 9.10548 9.83314 8.94581L9.66331 8.72288L9.93176 8.8034C10.1189 8.85951 10.2268 8.61952 10.3128 8.49541L10.3192 8.77555C10.3236 8.97035 10.5862 8.99968 10.7298 9.04278L10.4654 9.1354C10.3837 9.16398 10.3298 9.24191 10.3317 9.32843L10.3381 9.60863Z" fill="white"/>
</svg>
