<svg width="46" height="32" viewBox="0 0 46 32" fill="none" xmlns="http://www.w3.org/2000/svg">
<path d="M45.1739 13.1916C45.1739 15.0739 45.1739 16.9549 45.1739 18.8372C45.1504 18.9795 45.1145 19.1217 45.1049 19.2654C44.9212 21.7112 44.7568 24.1598 44.5552 26.6042C44.3812 28.7144 42.4312 30.7004 40.3527 30.9186C38.4966 31.1133 36.6419 31.3066 34.7844 31.4765C30.6247 31.8563 26.454 32.0041 22.2777 31.9999C16.5105 31.993 10.7681 31.5967 5.03682 30.9531C2.86444 30.7086 0.85089 28.8608 0.646496 26.7257C0.378575 23.9333 0.160371 21.1325 0.0512689 18.3304C-0.117218 13.9912 0.143798 9.66301 0.625781 5.34865C0.859176 3.25775 2.80092 1.28978 4.86142 1.11024C8.53498 0.789839 12.2058 0.440437 15.8849 0.207041C20.9215 -0.110597 25.9664 -0.0443074 31.0003 0.280236C34.0773 0.479106 37.1459 0.818841 40.2188 1.09919C42.3566 1.29392 44.3453 3.19975 44.5442 5.33622C44.7679 7.74889 44.9143 10.1698 45.0966 12.5867C45.1118 12.7883 45.1477 12.9899 45.1739 13.1916ZM18.8444 8.49879C18.8444 13.5396 18.8444 18.4934 18.8444 23.53C22.6243 21.011 26.3476 18.5293 30.1192 16.0158C26.3379 13.4954 22.6271 11.0219 18.8444 8.49879Z" fill="#FF0062"/>
</svg>
